<?xml version="1.0" encoding="UTF-8" standalone="no"?>
<!DOCTYPE svg PUBLIC "-//W3C//DTD SVG 1.1//EN"
 "http://www.w3.org/Graphics/SVG/1.1/DTD/svg11.dtd">
<!-- Generated by graphviz version 2.40.1 (20161225.0304)
 -->
<!-- Title: dependencies Pages: 1 -->
<svg width="504pt" height="211pt"
 viewBox="0.00 0.00 504.00 211.00" xmlns="http://www.w3.org/2000/svg" xmlns:xlink="http://www.w3.org/1999/xlink">
<g id="graph0" class="graph" transform="scale(1 1) rotate(0) translate(4 207)">
<title>dependencies</title>
<polygon fill="#ffffff" stroke="transparent" points="-4,4 -4,-207 500,-207 500,4 -4,4"/>
<text text-anchor="start" x="227.0091" y="-42.4" font-family="sans-serif" font-weight="bold" font-size="14.00" fill="#000000">Legend</text>
<polygon fill="#ffffb3" stroke="transparent" points="14,-10 14,-30 34,-30 34,-10 14,-10"/>
<text text-anchor="start" x="37.629" y="-15.4" font-family="sans-serif" font-size="14.00" fill="#000000"> &#160;Declarations</text>
<polygon fill="#8dd3c7" stroke="transparent" points="127,-10 127,-30 147,-30 147,-10 127,-10"/>
<text text-anchor="start" x="150.7251" y="-15.4" font-family="sans-serif" font-size="14.00" fill="#000000"> &#160;Module</text>
<polygon fill="#80b1d3" stroke="transparent" points="213,-10 213,-30 233,-30 233,-10 213,-10"/>
<text text-anchor="start" x="236.7812" y="-15.4" font-family="sans-serif" font-size="14.00" fill="#000000"> &#160;Bootstrap</text>
<polygon fill="#fdb462" stroke="transparent" points="310,-10 310,-30 330,-30 330,-10 310,-10"/>
<text text-anchor="start" x="333.6732" y="-15.4" font-family="sans-serif" font-size="14.00" fill="#000000"> &#160;Providers</text>
<polygon fill="#fb8072" stroke="transparent" points="406,-10 406,-30 426,-30 426,-10 406,-10"/>
<text text-anchor="start" x="429.7258" y="-15.4" font-family="sans-serif" font-size="14.00" fill="#000000"> &#160;Exports</text>
<g id="clust1" class="cluster">
<title>cluster_CoreModule</title>
<polygon fill="none" stroke="#000000" stroke-dasharray="1,5" points="15,-70 15,-195 481,-195 481,-70 15,-70"/>
</g>
<g id="clust6" class="cluster">
<title>cluster_CoreModule_providers</title>
<polygon fill="none" stroke="#000000" points="23,-78 23,-130 473,-130 473,-78 23,-78"/>
</g>
<!-- HttpComunicationsService -->
<g id="node1" class="node">
<title>HttpComunicationsService</title>
<ellipse fill="#fdb462" stroke="#000000" cx="349" cy="-104" rx="115.7677" ry="18"/>
<text text-anchor="middle" x="349" y="-99.8" font-family="Times,serif" font-size="14.00" fill="#000000">HttpComunicationsService</text>
</g>
<!-- CoreModule -->
<g id="node3" class="node">
<title>CoreModule</title>
<polygon fill="#8dd3c7" stroke="#000000" points="279.2619,-187 276.2619,-191 255.2619,-191 252.2619,-187 192.7381,-187 192.7381,-151 279.2619,-151 279.2619,-187"/>
<text text-anchor="middle" x="236" y="-164.8" font-family="Times,serif" font-size="14.00" fill="#000000">CoreModule</text>
</g>
<!-- HttpComunicationsService&#45;&gt;CoreModule -->
<g id="edge1" class="edge">
<title>HttpComunicationsService&#45;&gt;CoreModule</title>
<path fill="none" stroke="#000000" d="M256.3735,-115.0264C256.3735,-115.0264 256.3735,-140.7791 256.3735,-140.7791"/>
<polygon fill="#000000" stroke="#000000" points="252.8736,-140.779 256.3735,-150.7791 259.8736,-140.7791 252.8736,-140.779"/>
</g>
<!-- loginRegisterService -->
<g id="node2" class="node">
<title>loginRegisterService</title>
<ellipse fill="#fdb462" stroke="#000000" cx="123" cy="-104" rx="92.049" ry="18"/>
<text text-anchor="middle" x="123" y="-99.8" font-family="Times,serif" font-size="14.00" fill="#000000">loginRegisterService</text>
</g>
<!-- loginRegisterService&#45;&gt;CoreModule -->
<g id="edge2" class="edge">
<title>loginRegisterService&#45;&gt;CoreModule</title>
<path fill="none" stroke="#000000" d="M203.8218,-112.7662C203.8218,-112.7662 203.8218,-140.802 203.8218,-140.802"/>
<polygon fill="#000000" stroke="#000000" points="200.3219,-140.802 203.8218,-150.802 207.3219,-140.8021 200.3219,-140.802"/>
</g>
</g>
</svg>
