<?xml version="1.0" encoding="UTF-8" standalone="no"?>
<!DOCTYPE svg PUBLIC "-//W3C//DTD SVG 1.1//EN"
 "http://www.w3.org/Graphics/SVG/1.1/DTD/svg11.dtd">
<!-- Generated by graphviz version 2.40.1 (20161225.0304)
 -->
<!-- Title: dependencies Pages: 1 -->
<svg width="684pt" height="211pt"
 viewBox="0.00 0.00 684.00 211.00" xmlns="http://www.w3.org/2000/svg" xmlns:xlink="http://www.w3.org/1999/xlink">
<g id="graph0" class="graph" transform="scale(1 1) rotate(0) translate(4 207)">
<title>dependencies</title>
<polygon fill="#ffffff" stroke="transparent" points="-4,4 -4,-207 680,-207 680,4 -4,4"/>
<text text-anchor="start" x="317.0091" y="-42.4" font-family="sans-serif" font-weight="bold" font-size="14.00" fill="#000000">Legend</text>
<polygon fill="#ffffb3" stroke="transparent" points="104,-10 104,-30 124,-30 124,-10 104,-10"/>
<text text-anchor="start" x="127.629" y="-15.4" font-family="sans-serif" font-size="14.00" fill="#000000"> &#160;Declarations</text>
<polygon fill="#8dd3c7" stroke="transparent" points="217,-10 217,-30 237,-30 237,-10 217,-10"/>
<text text-anchor="start" x="240.7251" y="-15.4" font-family="sans-serif" font-size="14.00" fill="#000000"> &#160;Module</text>
<polygon fill="#80b1d3" stroke="transparent" points="303,-10 303,-30 323,-30 323,-10 303,-10"/>
<text text-anchor="start" x="326.7812" y="-15.4" font-family="sans-serif" font-size="14.00" fill="#000000"> &#160;Bootstrap</text>
<polygon fill="#fdb462" stroke="transparent" points="400,-10 400,-30 420,-30 420,-10 400,-10"/>
<text text-anchor="start" x="423.6732" y="-15.4" font-family="sans-serif" font-size="14.00" fill="#000000"> &#160;Providers</text>
<polygon fill="#fb8072" stroke="transparent" points="496,-10 496,-30 516,-30 516,-10 496,-10"/>
<text text-anchor="start" x="519.7258" y="-15.4" font-family="sans-serif" font-size="14.00" fill="#000000"> &#160;Exports</text>
<g id="clust1" class="cluster">
<title>cluster_LoginModule</title>
<polygon fill="none" stroke="#000000" stroke-dasharray="1,5" points="8,-70 8,-195 668,-195 668,-70 8,-70"/>
</g>
<g id="clust2" class="cluster">
<title>cluster_LoginModule_declarations</title>
<polygon fill="none" stroke="#000000" points="530,-78 530,-130 660,-130 660,-78 530,-78"/>
</g>
<g id="clust4" class="cluster">
<title>cluster_LoginModule_imports</title>
<polygon fill="none" stroke="#000000" points="368,-78 368,-130 522,-130 522,-78 368,-78"/>
</g>
<g id="clust7" class="cluster">
<title>cluster_LoginModule_providers</title>
<polygon fill="none" stroke="#000000" points="16,-78 16,-130 360,-130 360,-78 16,-78"/>
</g>
<!-- LoginComponent -->
<g id="node1" class="node">
<title>LoginComponent</title>
<polygon fill="#ffffb3" stroke="#000000" points="652.2758,-122 537.7242,-122 537.7242,-86 652.2758,-86 652.2758,-122"/>
<text text-anchor="middle" x="595" y="-99.8" font-family="Times,serif" font-size="14.00" fill="#000000">LoginComponent</text>
</g>
<!-- LoginModule -->
<g id="node2" class="node">
<title>LoginModule</title>
<polygon fill="#8dd3c7" stroke="#000000" points="413.493,-187 410.493,-191 389.493,-191 386.493,-187 320.507,-187 320.507,-151 413.493,-151 413.493,-187"/>
<text text-anchor="middle" x="367" y="-164.8" font-family="Times,serif" font-size="14.00" fill="#000000">LoginModule</text>
</g>
<!-- LoginComponent&#45;&gt;LoginModule -->
<g id="edge1" class="edge">
<title>LoginComponent&#45;&gt;LoginModule</title>
<path fill="none" stroke="#000000" d="M595,-122.1061C595,-141.3391 595,-169 595,-169 595,-169 423.6894,-169 423.6894,-169"/>
<polygon fill="#000000" stroke="#000000" points="423.6894,-165.5001 413.6894,-169 423.6893,-172.5001 423.6894,-165.5001"/>
</g>
<!-- LoginRoutingModule -->
<g id="node3" class="node">
<title>LoginRoutingModule</title>
<polygon fill="#8dd3c7" stroke="#000000" points="514.1108,-122 511.1108,-126 490.1108,-126 487.1108,-122 375.8892,-122 375.8892,-86 514.1108,-86 514.1108,-122"/>
<text text-anchor="middle" x="445" y="-99.8" font-family="Times,serif" font-size="14.00" fill="#000000">LoginRoutingModule</text>
</g>
<!-- LoginRoutingModule&#45;&gt;LoginModule -->
<g id="edge2" class="edge">
<title>LoginRoutingModule&#45;&gt;LoginModule</title>
<path fill="none" stroke="#000000" d="M394.7206,-122.1061C394.7206,-122.1061 394.7206,-140.991 394.7206,-140.991"/>
<polygon fill="#000000" stroke="#000000" points="391.2206,-140.9909 394.7206,-150.991 398.2206,-140.991 391.2206,-140.9909"/>
</g>
<!-- LoginService -->
<g id="node4" class="node">
<title>LoginService</title>
<ellipse fill="#fdb462" stroke="#000000" cx="289" cy="-104" rx="63.1209" ry="18"/>
<text text-anchor="middle" x="289" y="-99.8" font-family="Times,serif" font-size="14.00" fill="#000000">LoginService</text>
</g>
<!-- LoginService&#45;&gt;LoginModule -->
<g id="edge3" class="edge">
<title>LoginService&#45;&gt;LoginModule</title>
<path fill="none" stroke="#000000" d="M336.282,-115.922C336.282,-115.922 336.282,-140.7669 336.282,-140.7669"/>
<polygon fill="#000000" stroke="#000000" points="332.7821,-140.7669 336.282,-150.7669 339.7821,-140.7669 332.7821,-140.7669"/>
</g>
<!-- loginRegisterService -->
<g id="node5" class="node">
<title>loginRegisterService</title>
<ellipse fill="#fdb462" stroke="#000000" cx="116" cy="-104" rx="92.049" ry="18"/>
<text text-anchor="middle" x="116" y="-99.8" font-family="Times,serif" font-size="14.00" fill="#000000">loginRegisterService</text>
</g>
<!-- loginRegisterService&#45;&gt;LoginModule -->
<g id="edge4" class="edge">
<title>loginRegisterService&#45;&gt;LoginModule</title>
<path fill="none" stroke="#000000" d="M116,-122.1061C116,-141.3391 116,-169 116,-169 116,-169 310.3771,-169 310.3771,-169"/>
<polygon fill="#000000" stroke="#000000" points="310.3771,-172.5001 320.3771,-169 310.377,-165.5001 310.3771,-172.5001"/>
</g>
</g>
</svg>
