<?xml version="1.0" encoding="UTF-8" standalone="no"?>
<!DOCTYPE svg PUBLIC "-//W3C//DTD SVG 1.1//EN"
 "http://www.w3.org/Graphics/SVG/1.1/DTD/svg11.dtd">
<!-- Generated by graphviz version 2.40.1 (20161225.0304)
 -->
<!-- Title: dependencies Pages: 1 -->
<svg width="504pt" height="211pt"
 viewBox="0.00 0.00 504.00 211.00" xmlns="http://www.w3.org/2000/svg" xmlns:xlink="http://www.w3.org/1999/xlink">
<g id="graph0" class="graph" transform="scale(1 1) rotate(0) translate(4 207)">
<title>dependencies</title>
<polygon fill="#ffffff" stroke="transparent" points="-4,4 -4,-207 500,-207 500,4 -4,4"/>
<text text-anchor="start" x="227.0091" y="-42.4" font-family="sans-serif" font-weight="bold" font-size="14.00" fill="#000000">Legend</text>
<polygon fill="#ffffb3" stroke="transparent" points="14,-10 14,-30 34,-30 34,-10 14,-10"/>
<text text-anchor="start" x="37.629" y="-15.4" font-family="sans-serif" font-size="14.00" fill="#000000"> &#160;Declarations</text>
<polygon fill="#8dd3c7" stroke="transparent" points="127,-10 127,-30 147,-30 147,-10 127,-10"/>
<text text-anchor="start" x="150.7251" y="-15.4" font-family="sans-serif" font-size="14.00" fill="#000000"> &#160;Module</text>
<polygon fill="#80b1d3" stroke="transparent" points="213,-10 213,-30 233,-30 233,-10 213,-10"/>
<text text-anchor="start" x="236.7812" y="-15.4" font-family="sans-serif" font-size="14.00" fill="#000000"> &#160;Bootstrap</text>
<polygon fill="#fdb462" stroke="transparent" points="310,-10 310,-30 330,-30 330,-10 310,-10"/>
<text text-anchor="start" x="333.6732" y="-15.4" font-family="sans-serif" font-size="14.00" fill="#000000"> &#160;Providers</text>
<polygon fill="#fb8072" stroke="transparent" points="406,-10 406,-30 426,-30 426,-10 406,-10"/>
<text text-anchor="start" x="429.7258" y="-15.4" font-family="sans-serif" font-size="14.00" fill="#000000"> &#160;Exports</text>
<g id="clust1" class="cluster">
<title>cluster_CarrelloModule</title>
<polygon fill="none" stroke="#000000" stroke-dasharray="1,5" points="23,-70 23,-195 473,-195 473,-70 23,-70"/>
</g>
<g id="clust2" class="cluster">
<title>cluster_CarrelloModule_declarations</title>
<polygon fill="none" stroke="#000000" points="321,-78 321,-130 465,-130 465,-78 321,-78"/>
</g>
<g id="clust4" class="cluster">
<title>cluster_CarrelloModule_imports</title>
<polygon fill="none" stroke="#000000" points="31,-78 31,-130 313,-130 313,-78 31,-78"/>
</g>
<!-- CarrelloComponent -->
<g id="node1" class="node">
<title>CarrelloComponent</title>
<polygon fill="#ffffb3" stroke="#000000" points="456.7008,-122 329.2992,-122 329.2992,-86 456.7008,-86 456.7008,-122"/>
<text text-anchor="middle" x="393" y="-99.8" font-family="Times,serif" font-size="14.00" fill="#000000">CarrelloComponent</text>
</g>
<!-- CarrelloModule -->
<g id="node2" class="node">
<title>CarrelloModule</title>
<polygon fill="#8dd3c7" stroke="#000000" points="282.9188,-187 279.9188,-191 258.9188,-191 255.9188,-187 177.0812,-187 177.0812,-151 282.9188,-151 282.9188,-187"/>
<text text-anchor="middle" x="230" y="-164.8" font-family="Times,serif" font-size="14.00" fill="#000000">CarrelloModule</text>
</g>
<!-- CarrelloComponent&#45;&gt;CarrelloModule -->
<g id="edge1" class="edge">
<title>CarrelloComponent&#45;&gt;CarrelloModule</title>
<path fill="none" stroke="#000000" d="M393,-122.1061C393,-141.3391 393,-169 393,-169 393,-169 292.9214,-169 292.9214,-169"/>
<polygon fill="#000000" stroke="#000000" points="292.9215,-165.5001 282.9214,-169 292.9214,-172.5001 292.9215,-165.5001"/>
</g>
<!-- CarrelloRoutingModule -->
<g id="node3" class="node">
<title>CarrelloRoutingModule</title>
<polygon fill="#8dd3c7" stroke="#000000" points="305.0365,-122 302.0365,-126 281.0365,-126 278.0365,-122 154.9635,-122 154.9635,-86 305.0365,-86 305.0365,-122"/>
<text text-anchor="middle" x="230" y="-99.8" font-family="Times,serif" font-size="14.00" fill="#000000">CarrelloRoutingModule</text>
</g>
<!-- CarrelloRoutingModule&#45;&gt;CarrelloModule -->
<g id="edge2" class="edge">
<title>CarrelloRoutingModule&#45;&gt;CarrelloModule</title>
<path fill="none" stroke="#000000" d="M230,-122.1061C230,-122.1061 230,-140.991 230,-140.991"/>
<polygon fill="#000000" stroke="#000000" points="226.5001,-140.9909 230,-150.991 233.5001,-140.991 226.5001,-140.9909"/>
</g>
<!-- SharedModule -->
<g id="node4" class="node">
<title>SharedModule</title>
<polygon fill="#8dd3c7" stroke="#000000" points="137.4231,-122 134.4231,-126 113.4231,-126 110.4231,-122 38.5769,-122 38.5769,-86 137.4231,-86 137.4231,-122"/>
<text text-anchor="middle" x="88" y="-99.8" font-family="Times,serif" font-size="14.00" fill="#000000">SharedModule</text>
</g>
<!-- SharedModule&#45;&gt;CarrelloModule -->
<g id="edge3" class="edge">
<title>SharedModule&#45;&gt;CarrelloModule</title>
<path fill="none" stroke="#000000" d="M88,-122.1061C88,-141.3391 88,-169 88,-169 88,-169 167.1244,-169 167.1244,-169"/>
<polygon fill="#000000" stroke="#000000" points="167.1245,-172.5001 177.1244,-169 167.1244,-165.5001 167.1245,-172.5001"/>
</g>
</g>
</svg>
