<?xml version="1.0" encoding="UTF-8" standalone="no"?>
<!DOCTYPE svg PUBLIC "-//W3C//DTD SVG 1.1//EN"
 "http://www.w3.org/Graphics/SVG/1.1/DTD/svg11.dtd">
<!-- Generated by graphviz version 2.40.1 (20161225.0304)
 -->
<!-- Title: dependencies Pages: 1 -->
<svg width="528pt" height="211pt"
 viewBox="0.00 0.00 528.00 211.00" xmlns="http://www.w3.org/2000/svg" xmlns:xlink="http://www.w3.org/1999/xlink">
<g id="graph0" class="graph" transform="scale(1 1) rotate(0) translate(4 207)">
<title>dependencies</title>
<polygon fill="#ffffff" stroke="transparent" points="-4,4 -4,-207 524,-207 524,4 -4,4"/>
<text text-anchor="start" x="239.0091" y="-42.4" font-family="sans-serif" font-weight="bold" font-size="14.00" fill="#000000">Legend</text>
<polygon fill="#ffffb3" stroke="transparent" points="26,-10 26,-30 46,-30 46,-10 26,-10"/>
<text text-anchor="start" x="49.629" y="-15.4" font-family="sans-serif" font-size="14.00" fill="#000000"> &#160;Declarations</text>
<polygon fill="#8dd3c7" stroke="transparent" points="139,-10 139,-30 159,-30 159,-10 139,-10"/>
<text text-anchor="start" x="162.7251" y="-15.4" font-family="sans-serif" font-size="14.00" fill="#000000"> &#160;Module</text>
<polygon fill="#80b1d3" stroke="transparent" points="225,-10 225,-30 245,-30 245,-10 225,-10"/>
<text text-anchor="start" x="248.7812" y="-15.4" font-family="sans-serif" font-size="14.00" fill="#000000"> &#160;Bootstrap</text>
<polygon fill="#fdb462" stroke="transparent" points="322,-10 322,-30 342,-30 342,-10 322,-10"/>
<text text-anchor="start" x="345.6732" y="-15.4" font-family="sans-serif" font-size="14.00" fill="#000000"> &#160;Providers</text>
<polygon fill="#fb8072" stroke="transparent" points="418,-10 418,-30 438,-30 438,-10 418,-10"/>
<text text-anchor="start" x="441.7258" y="-15.4" font-family="sans-serif" font-size="14.00" fill="#000000"> &#160;Exports</text>
<g id="clust1" class="cluster">
<title>cluster_RegisterModule</title>
<polygon fill="none" stroke="#000000" stroke-dasharray="1,5" points="8,-70 8,-195 512,-195 512,-70 8,-70"/>
</g>
<g id="clust2" class="cluster">
<title>cluster_RegisterModule_declarations</title>
<polygon fill="none" stroke="#000000" points="360,-78 360,-130 504,-130 504,-78 360,-78"/>
</g>
<g id="clust4" class="cluster">
<title>cluster_RegisterModule_imports</title>
<polygon fill="none" stroke="#000000" points="184,-78 184,-130 352,-130 352,-78 184,-78"/>
</g>
<g id="clust7" class="cluster">
<title>cluster_RegisterModule_providers</title>
<polygon fill="none" stroke="#000000" points="16,-78 16,-130 176,-130 176,-78 16,-78"/>
</g>
<!-- RegisterComponent -->
<g id="node1" class="node">
<title>RegisterComponent</title>
<polygon fill="#ffffb3" stroke="#000000" points="495.9846,-122 368.0154,-122 368.0154,-86 495.9846,-86 495.9846,-122"/>
<text text-anchor="middle" x="432" y="-99.8" font-family="Times,serif" font-size="14.00" fill="#000000">RegisterComponent</text>
</g>
<!-- RegisterModule -->
<g id="node2" class="node">
<title>RegisterModule</title>
<polygon fill="#8dd3c7" stroke="#000000" points="321.2022,-187 318.2022,-191 297.2022,-191 294.2022,-187 214.7978,-187 214.7978,-151 321.2022,-151 321.2022,-187"/>
<text text-anchor="middle" x="268" y="-164.8" font-family="Times,serif" font-size="14.00" fill="#000000">RegisterModule</text>
</g>
<!-- RegisterComponent&#45;&gt;RegisterModule -->
<g id="edge1" class="edge">
<title>RegisterComponent&#45;&gt;RegisterModule</title>
<path fill="none" stroke="#000000" d="M432,-122.1061C432,-141.3391 432,-169 432,-169 432,-169 331.2461,-169 331.2461,-169"/>
<polygon fill="#000000" stroke="#000000" points="331.2461,-165.5001 321.2461,-169 331.2461,-172.5001 331.2461,-165.5001"/>
</g>
<!-- RegisterRoutingModule -->
<g id="node3" class="node">
<title>RegisterRoutingModule</title>
<polygon fill="#8dd3c7" stroke="#000000" points="343.8201,-122 340.8201,-126 319.8201,-126 316.8201,-122 192.1799,-122 192.1799,-86 343.8201,-86 343.8201,-122"/>
<text text-anchor="middle" x="268" y="-99.8" font-family="Times,serif" font-size="14.00" fill="#000000">RegisterRoutingModule</text>
</g>
<!-- RegisterRoutingModule&#45;&gt;RegisterModule -->
<g id="edge2" class="edge">
<title>RegisterRoutingModule&#45;&gt;RegisterModule</title>
<path fill="none" stroke="#000000" d="M268,-122.1061C268,-122.1061 268,-140.991 268,-140.991"/>
<polygon fill="#000000" stroke="#000000" points="264.5001,-140.9909 268,-150.991 271.5001,-140.991 264.5001,-140.9909"/>
</g>
<!-- RegisterService -->
<g id="node4" class="node">
<title>RegisterService</title>
<ellipse fill="#fdb462" stroke="#000000" cx="96" cy="-104" rx="72.3439" ry="18"/>
<text text-anchor="middle" x="96" y="-99.8" font-family="Times,serif" font-size="14.00" fill="#000000">RegisterService</text>
</g>
<!-- RegisterService&#45;&gt;RegisterModule -->
<g id="edge3" class="edge">
<title>RegisterService&#45;&gt;RegisterModule</title>
<path fill="none" stroke="#000000" d="M96,-122.1061C96,-141.3391 96,-169 96,-169 96,-169 204.521,-169 204.521,-169"/>
<polygon fill="#000000" stroke="#000000" points="204.521,-172.5001 214.521,-169 204.5209,-165.5001 204.521,-172.5001"/>
</g>
</g>
</svg>
