<?xml version="1.0" encoding="UTF-8" standalone="no"?>
<!DOCTYPE svg PUBLIC "-//W3C//DTD SVG 1.1//EN"
 "http://www.w3.org/Graphics/SVG/1.1/DTD/svg11.dtd">
<!-- Generated by graphviz version 2.40.1 (20161225.0304)
 -->
<!-- Title: dependencies Pages: 1 -->
<svg width="524pt" height="211pt"
 viewBox="0.00 0.00 524.00 211.00" xmlns="http://www.w3.org/2000/svg" xmlns:xlink="http://www.w3.org/1999/xlink">
<g id="graph0" class="graph" transform="scale(1 1) rotate(0) translate(4 207)">
<title>dependencies</title>
<polygon fill="#ffffff" stroke="transparent" points="-4,4 -4,-207 520,-207 520,4 -4,4"/>
<text text-anchor="start" x="237.0091" y="-42.4" font-family="sans-serif" font-weight="bold" font-size="14.00" fill="#000000">Legend</text>
<polygon fill="#ffffb3" stroke="transparent" points="24,-10 24,-30 44,-30 44,-10 24,-10"/>
<text text-anchor="start" x="47.629" y="-15.4" font-family="sans-serif" font-size="14.00" fill="#000000"> &#160;Declarations</text>
<polygon fill="#8dd3c7" stroke="transparent" points="137,-10 137,-30 157,-30 157,-10 137,-10"/>
<text text-anchor="start" x="160.7251" y="-15.4" font-family="sans-serif" font-size="14.00" fill="#000000"> &#160;Module</text>
<polygon fill="#80b1d3" stroke="transparent" points="223,-10 223,-30 243,-30 243,-10 223,-10"/>
<text text-anchor="start" x="246.7812" y="-15.4" font-family="sans-serif" font-size="14.00" fill="#000000"> &#160;Bootstrap</text>
<polygon fill="#fdb462" stroke="transparent" points="320,-10 320,-30 340,-30 340,-10 320,-10"/>
<text text-anchor="start" x="343.6732" y="-15.4" font-family="sans-serif" font-size="14.00" fill="#000000"> &#160;Providers</text>
<polygon fill="#fb8072" stroke="transparent" points="416,-10 416,-30 436,-30 436,-10 416,-10"/>
<text text-anchor="start" x="439.7258" y="-15.4" font-family="sans-serif" font-size="14.00" fill="#000000"> &#160;Exports</text>
<g id="clust1" class="cluster">
<title>cluster_PersonalizzaModule</title>
<polygon fill="none" stroke="#000000" stroke-dasharray="1,5" points="8,-70 8,-195 508,-195 508,-70 8,-70"/>
</g>
<g id="clust2" class="cluster">
<title>cluster_PersonalizzaModule_declarations</title>
<polygon fill="none" stroke="#000000" points="332,-78 332,-130 500,-130 500,-78 332,-78"/>
</g>
<g id="clust4" class="cluster">
<title>cluster_PersonalizzaModule_imports</title>
<polygon fill="none" stroke="#000000" points="16,-78 16,-130 324,-130 324,-78 16,-78"/>
</g>
<!-- PersonalizzaComponent -->
<g id="node1" class="node">
<title>PersonalizzaComponent</title>
<polygon fill="#ffffb3" stroke="#000000" points="492.0744,-122 339.9256,-122 339.9256,-86 492.0744,-86 492.0744,-122"/>
<text text-anchor="middle" x="416" y="-99.8" font-family="Times,serif" font-size="14.00" fill="#000000">PersonalizzaComponent</text>
</g>
<!-- PersonalizzaModule -->
<g id="node2" class="node">
<title>PersonalizzaModule</title>
<polygon fill="#8dd3c7" stroke="#000000" points="293.2921,-187 290.2921,-191 269.2921,-191 266.2921,-187 162.7079,-187 162.7079,-151 293.2921,-151 293.2921,-187"/>
<text text-anchor="middle" x="228" y="-164.8" font-family="Times,serif" font-size="14.00" fill="#000000">PersonalizzaModule</text>
</g>
<!-- PersonalizzaComponent&#45;&gt;PersonalizzaModule -->
<g id="edge1" class="edge">
<title>PersonalizzaComponent&#45;&gt;PersonalizzaModule</title>
<path fill="none" stroke="#000000" d="M416,-122.1061C416,-141.3391 416,-169 416,-169 416,-169 303.2257,-169 303.2257,-169"/>
<polygon fill="#000000" stroke="#000000" points="303.2257,-165.5001 293.2257,-169 303.2256,-172.5001 303.2257,-165.5001"/>
</g>
<!-- PersonalizzaRoutingModule -->
<g id="node3" class="node">
<title>PersonalizzaRoutingModule</title>
<polygon fill="#8dd3c7" stroke="#000000" points="315.9101,-122 312.9101,-126 291.9101,-126 288.9101,-122 140.0899,-122 140.0899,-86 315.9101,-86 315.9101,-122"/>
<text text-anchor="middle" x="228" y="-99.8" font-family="Times,serif" font-size="14.00" fill="#000000">PersonalizzaRoutingModule</text>
</g>
<!-- PersonalizzaRoutingModule&#45;&gt;PersonalizzaModule -->
<g id="edge2" class="edge">
<title>PersonalizzaRoutingModule&#45;&gt;PersonalizzaModule</title>
<path fill="none" stroke="#000000" d="M228,-122.1061C228,-122.1061 228,-140.991 228,-140.991"/>
<polygon fill="#000000" stroke="#000000" points="224.5001,-140.9909 228,-150.991 231.5001,-140.991 224.5001,-140.9909"/>
</g>
<!-- SharedModule -->
<g id="node4" class="node">
<title>SharedModule</title>
<polygon fill="#8dd3c7" stroke="#000000" points="122.4231,-122 119.4231,-126 98.4231,-126 95.4231,-122 23.5769,-122 23.5769,-86 122.4231,-86 122.4231,-122"/>
<text text-anchor="middle" x="73" y="-99.8" font-family="Times,serif" font-size="14.00" fill="#000000">SharedModule</text>
</g>
<!-- SharedModule&#45;&gt;PersonalizzaModule -->
<g id="edge3" class="edge">
<title>SharedModule&#45;&gt;PersonalizzaModule</title>
<path fill="none" stroke="#000000" d="M73,-122.1061C73,-141.3391 73,-169 73,-169 73,-169 152.7153,-169 152.7153,-169"/>
<polygon fill="#000000" stroke="#000000" points="152.7153,-172.5001 162.7153,-169 152.7152,-165.5001 152.7153,-172.5001"/>
</g>
</g>
</svg>
